<?xml version="1.0" encoding="utf-8"?>
<!-- Generator: Adobe Illustrator 16.0.0, SVG Export Plug-In . SVG Version: 6.00 Build 0)  -->
<!DOCTYPE svg PUBLIC "-//W3C//DTD SVG 1.1//EN" "http://www.w3.org/Graphics/SVG/1.1/DTD/svg11.dtd">
<svg version="1.1" id="Layer_1" xmlns="http://www.w3.org/2000/svg" xmlns:xlink="http://www.w3.org/1999/xlink" x="0px" y="0px"
	 width="234px" height="400px" viewBox="0 0 234 400" enable-background="new 0 0 234 400" xml:space="preserve">
<path d="M223.2,329.8c-2.1-1-7.2,6.9-10.2,9.4c-4.8,4.8-6.1,5.3-7.9-3.9c-1.2-9.3-1.1-159.8-0.8-174.3s-6.1-19.6-14.1-20.5
	c-5.2-1-80.4-1.1-102.3,1.9c-18.9,4.3-77.8,58.4-82.6,81.3C0,251.5,52,351.9,94.8,385c11.3,0.5,18.4,0.5,27.3-1
	c14.1-10.2,32.7-81.3,33.9-90.5c1.4-1.1,2.1-0.6,3,0.4c0.8,4-1.4,63.8-1.2,58.9c0.2-4.9-0.5,5.1,0.7,10.2s19.9,23.7,23.4,25
	s7.9,1.3,11.6,0.2c3.6-1.1,27.4-34.8,31.1-42.9c2.7-5.9,1.6-3,2.3-8.1C227.6,332,225.3,330.8,223.2,329.8z M152.7,271.5
	c-2.1,15.8-13.7,53.2-19.6,64.4c-4.4,7.8-6.6,7.8-13,2.1c-14.2-14.2-56.8-76.9-63.1-137.2c8.7-6.3,11.6-8.7,30.2-11.7
	c18.7-3,56.7-1.8,63.6,0c6.9,1.8,7.7,6.6,7.4,10.4C158.7,211.8,154.8,255.7,152.7,271.5z"/>
</svg>
