<?xml version="1.0" encoding="utf-8"?>
<!-- Generator: Adobe Illustrator 16.0.0, SVG Export Plug-In . SVG Version: 6.00 Build 0)  -->
<!DOCTYPE svg PUBLIC "-//W3C//DTD SVG 1.1//EN" "http://www.w3.org/Graphics/SVG/1.1/DTD/svg11.dtd">
<svg version="1.1" id="Layer_1" xmlns="http://www.w3.org/2000/svg" xmlns:xlink="http://www.w3.org/1999/xlink" x="0px" y="0px"
	 width="336.3px" height="385.7px" viewBox="0 0 336.3 385.7" enable-background="new 0 0 336.3 385.7" xml:space="preserve">
<g>
	<path d="M93.9,8.5c8.3-1.2,234.8,0,234.8,0s4.4-1.2,6.6,7.6c2.2,8.8-38.4,103.9-37.2,100.9c1.3-3-1.7,2.5-4.7,3.6
		c-3,1.1-12.9,0.3-15.1-0.8c-2.3-1.2-0.6-2.9,4.3-8c4.9-5.1,10.1-9.5,12.4-16.3c2.3-6.8,2.3-19.2-10.3-22.7
		c-12.6-3.5-201.9-4.3-211-2.1c-9.1,2.3-12.2,4.3-10.9,25.7c2.9,47.8,87.5,206.4,119.5,244.8c5.4,7.8,34.9,16.9,46.9,7.8
		c12-9.1,34.7-39.4,44.2-47.5s14.2,3.7,13.6,13.6c-0.6,9.9-42.5,48.1-66.3,59.7c-9.5,6.6-37.4,9.5-63.8-1.2
		C111.6,345.7,23.7,204.8,9,156.9c-3.5-11.1-9.1-31.6,0-45.2c6.2-13,72.1-96,72.1-96S85.6,9.7,93.9,8.5z"/>
</g>
</svg>
