<svg fill="#000000" xmlns="http://www.w3.org/2000/svg" width="335" height="340" viewBox="0 40 335 340">
<g id="Layer_1">
	<path d="M261.9,204.9c8.2-3.2,31.8-4.2,50.2-13.5s20.5-25.8,1-40.5c-16.8-14.6-74.9-37.4-83.2-39.3s-8.3-4.5-9.3-6.2
		c-1.4-4.9-4-14.5-4-14.5c-3.9-33.3-25.4-46.7-47.5-47.5v0c-0.3,0-0.7,0-1,0c-0.3,0-0.7,0-1,0v0c-22.1,0.8-43.6,14.2-47.5,47.5
		c0,0-2.6,9.6-4,14.5c-0.9,1.7-1,4.2-9.3,6.2S40,136.2,23.2,150.9c-19.5,14.8-17.5,31.2,1,40.5s42,10.2,50.2,13.5s6.5,8.5,2.2,19.5
		c-13.5,23.8-50.5,99.5-52.5,115.5s1,15,14.5,17.7c20.2,1.2,66.7,0.2,81,0s13.3-4,17-8.7c5.8-13.2,18.4-36.9,24.5-48.5
		c2.9-4.3,4.6-5.9,6-6.4v0c0.3-0.1,0.7-0.2,1-0.2c0,0,0,0,0,0c0,0,0,0,0,0c0.3,0,0.7,0.1,1,0.2v0c1.3,0.4,3.1,2,6,6.4
		c6.1,11.6,18.8,35.2,24.5,48.5c3.7,4.8,2.7,8.5,17,8.7s60.8,1.2,81,0c13.5-2.7,16.5-1.7,14.5-17.7s-39-91.8-52.5-115.5
		C255.4,213.4,253.6,208.1,261.9,204.9z"/>
</g>
</svg>
